<svg width="185" height="30" viewBox="0 0 185 30" fill="none" xmlns="http://www.w3.org/2000/svg">
<path d="M0 0H6.55087V22.0135C6.55087 23.6351 7.2469 24.4459 8.63896 24.4459C8.9665 24.4459 9.32134 24.4054 9.70348 24.3243C10.1129 24.2162 10.4814 24.0676 10.8089 23.8784L11.6687 28.7432C10.8499 29.1216 9.90819 29.4189 8.84367 29.6351C7.77916 29.8513 6.78288 29.9595 5.85484 29.9595C3.97146 29.9595 2.52481 29.473 1.51489 28.5C0.504963 27.527 0 26.1216 0 24.2838V0Z" fill="black"/>
<path d="M19.8967 30C18.8322 30 17.8359 29.8378 16.9078 29.5135C16.0071 29.1622 15.2292 28.6892 14.5741 28.0946C13.919 27.473 13.4004 26.7568 13.0183 25.9459C12.6361 25.1081 12.4451 24.2027 12.4451 23.2297C12.4451 22.1757 12.6634 21.2162 13.1001 20.3514C13.5642 19.4865 14.2056 18.7432 15.0245 18.1216C15.8433 17.5 16.8123 17.0135 17.9314 16.6622C19.0505 16.3108 20.2924 16.1351 21.6572 16.1351C22.558 16.1351 23.4314 16.2162 24.2776 16.3784C25.1237 16.5135 25.8607 16.7297 26.4885 17.027V16.0541C26.4885 13.5946 25.0555 12.3649 22.1895 12.3649C21.0158 12.3649 19.8967 12.5676 18.8322 12.973C17.7676 13.3513 16.6485 13.9324 15.4748 14.7162L13.5505 10.6622C14.9699 9.74324 16.4438 9.05405 17.9723 8.59459C19.5009 8.13513 21.125 7.9054 22.8446 7.9054C26.0927 7.9054 28.6039 8.66216 30.3781 10.1757C32.1523 11.6892 33.0393 13.9054 33.0393 16.8243V22.2973C33.0393 22.9459 33.1349 23.4054 33.3259 23.6757C33.5443 23.9189 33.9128 24.0676 34.4314 24.1216V29.5946C33.8582 29.7297 33.3396 29.8108 32.8756 29.8378C32.4116 29.8919 31.9885 29.9189 31.6063 29.9189C30.3781 29.9189 29.45 29.6892 28.8222 29.2297C28.1944 28.7432 27.7987 28.0676 27.6349 27.2027L27.5121 26.2297C26.5567 27.4459 25.4103 28.3784 24.0728 29.027C22.7627 29.6757 21.3706 30 19.8967 30ZM21.821 25.3378C22.5307 25.3378 23.213 25.2162 23.8681 24.973C24.5505 24.7297 25.1101 24.4054 25.5468 24C26.1746 23.5135 26.4885 23 26.4885 22.4595V20.4324C25.9153 20.2162 25.2875 20.0541 24.6051 19.9459C23.95 19.8108 23.3359 19.7432 22.7627 19.7432C21.5617 19.7432 20.5654 20.0135 19.7738 20.5541C19.0096 21.0946 18.6274 21.7973 18.6274 22.6622C18.6274 23.4459 18.9277 24.0946 19.5282 24.6081C20.1287 25.0946 20.8929 25.3378 21.821 25.3378Z" fill="black"/>
<path d="M37.7043 0H44.2552V22.0135C44.2552 23.6351 44.9512 24.4459 46.3432 24.4459C46.6708 24.4459 47.0256 24.4054 47.4078 24.3243C47.8172 24.2162 48.1857 24.0676 48.5132 23.8784L49.373 28.7432C48.5542 29.1216 47.6125 29.4189 46.548 29.6351C45.4834 29.8513 44.4872 29.9595 43.5591 29.9595C41.6757 29.9595 40.2291 29.473 39.2192 28.5C38.2092 27.527 37.7043 26.1216 37.7043 24.2838V0Z" fill="black"/>
<path d="M61.7362 30C59.9074 30 58.2697 29.7027 56.823 29.1081C55.4037 28.5135 54.2027 27.7162 53.2201 26.7162C52.2374 25.6892 51.4868 24.5135 50.9682 23.1892C50.4769 21.8378 50.2312 20.4324 50.2312 18.973C50.2312 17.5135 50.4769 16.1216 50.9682 14.7973C51.4868 13.4459 52.2374 12.2703 53.2201 11.2703C54.2027 10.2432 55.4037 9.43243 56.823 8.83784C58.2697 8.21622 59.9074 7.9054 61.7362 7.9054C63.565 7.9054 65.189 8.21622 66.6084 8.83784C68.0277 9.43243 69.2287 10.2432 70.2114 11.2703C71.194 12.2703 71.9446 13.4459 72.4632 14.7973C72.9818 16.1216 73.2412 17.5135 73.2412 18.973C73.2412 20.4324 72.9818 21.8378 72.4632 23.1892C71.9719 24.5135 71.2349 25.6892 70.2523 26.7162C69.2697 27.7162 68.055 28.5135 66.6084 29.1081C65.189 29.7027 63.565 30 61.7362 30ZM56.9459 18.973C56.9459 20.6486 57.3962 22 58.297 23.027C59.1977 24.027 60.3441 24.527 61.7362 24.527C62.4186 24.527 63.0464 24.3919 63.6196 24.1216C64.1928 23.8513 64.6841 23.473 65.0935 22.9865C65.5302 22.5 65.8714 21.9189 66.1171 21.2432C66.3627 20.5405 66.4856 19.7838 66.4856 18.973C66.4856 17.2973 66.0352 15.9595 65.1345 14.9595C64.2337 13.9324 63.1009 13.4189 61.7362 13.4189C61.0538 13.4189 60.4124 13.5541 59.8119 13.8243C59.2387 14.0946 58.7337 14.473 58.297 14.9595C57.8876 15.4459 57.56 16.0405 57.3144 16.7432C57.0687 17.4189 56.9459 18.1622 56.9459 18.973Z" fill="black"/>
<path d="M82.6724 30C81.6898 30 80.7754 29.8378 79.9292 29.5135C79.0831 29.1622 78.3325 28.7027 77.6774 28.1351C77.0496 27.5405 76.5583 26.8514 76.2034 26.0676C75.8486 25.2568 75.6712 24.3919 75.6712 23.473C75.6712 22.5541 75.8895 21.7162 76.3263 20.9595C76.763 20.2027 77.3635 19.5541 78.1278 19.0135C78.9193 18.4459 79.861 18.0135 80.9528 17.7162C82.0446 17.3919 83.2456 17.2297 84.5558 17.2297C85.7022 17.2297 86.8486 17.3378 87.995 17.5541C89.1687 17.7432 90.2196 18.0135 91.1476 18.3649V16.2973C91.1476 14.2973 90.5744 12.7162 89.428 11.5541C88.2816 10.3649 86.7258 9.77027 84.7605 9.77027C83.7233 9.77027 82.6178 9.98649 81.4441 10.4189C80.2977 10.8514 79.124 11.473 77.923 12.2838L77.1451 10.9054C79.8747 9.06757 82.4677 8.14865 84.9243 8.14865C87.49 8.14865 89.5099 8.89189 90.9838 10.3784C92.4578 11.8378 93.1948 13.8649 93.1948 16.4595V26.7568C93.1948 27.4324 93.495 27.7703 94.0955 27.7703V29.5946C93.959 29.6216 93.8089 29.6351 93.6451 29.6351C93.5086 29.6622 93.3858 29.6757 93.2766 29.6757C92.7307 29.6757 92.294 29.5 91.9665 29.1486C91.6389 28.7703 91.4479 28.3243 91.3933 27.8108V26.0676C90.4106 27.3378 89.155 28.3108 87.6265 28.9865C86.098 29.6622 84.4466 30 82.6724 30ZM83.0819 28.3784C84.665 28.3784 86.1116 28.0811 87.4218 27.4865C88.7593 26.8919 89.7828 26.1081 90.4925 25.1351C90.9292 24.5676 91.1476 24.027 91.1476 23.5135V19.7838C90.165 19.4054 89.1414 19.1216 88.0769 18.9324C87.0124 18.7432 85.9069 18.6486 84.7605 18.6486C83.696 18.6486 82.727 18.7703 81.8536 19.0135C80.9801 19.2297 80.2295 19.5405 79.6017 19.9459C78.9739 20.3513 78.4826 20.8514 78.1278 21.4459C77.8002 22.0135 77.6364 22.6486 77.6364 23.3513C77.6364 24.0541 77.7729 24.7162 78.0459 25.3378C78.3188 25.9595 78.701 26.5 79.1923 26.9595C79.6836 27.3919 80.2568 27.7432 80.9119 28.0135C81.5943 28.2568 82.3176 28.3784 83.0819 28.3784Z" fill="black"/>
<path d="M99.5863 0H101.674V25.4189C101.674 26.2027 101.893 26.8243 102.33 27.2838C102.794 27.7432 103.421 27.973 104.213 27.973C104.513 27.973 104.868 27.9459 105.277 27.8919C105.714 27.8108 106.11 27.7027 106.465 27.5676L106.874 29.1892C106.41 29.3784 105.837 29.527 105.155 29.6351C104.472 29.7703 103.885 29.8378 103.394 29.8378C102.248 29.8378 101.32 29.5 100.61 28.8243C99.9275 28.1216 99.5863 27.1892 99.5863 26.027V0Z" fill="black"/>
<path d="M110.018 29.5946V8.51351H112.065V29.5946H110.018ZM110.018 3.72973V0H112.065V3.72973H110.018Z" fill="black"/>
<path d="M123.735 30C122.753 30 121.838 29.8378 120.992 29.5135C120.146 29.1622 119.395 28.7027 118.74 28.1351C118.112 27.5405 117.621 26.8514 117.266 26.0676C116.911 25.2568 116.734 24.3919 116.734 23.473C116.734 22.5541 116.952 21.7162 117.389 20.9595C117.826 20.2027 118.426 19.5541 119.191 19.0135C119.982 18.4459 120.924 18.0135 122.016 17.7162C123.108 17.3919 124.309 17.2297 125.619 17.2297C126.765 17.2297 127.911 17.3378 129.058 17.5541C130.232 17.7432 131.282 18.0135 132.21 18.3649V16.2973C132.21 14.2973 131.637 12.7162 130.491 11.5541C129.344 10.3649 127.789 9.77027 125.823 9.77027C124.786 9.77027 123.681 9.98649 122.507 10.4189C121.361 10.8514 120.187 11.473 118.986 12.2838L118.208 10.9054C120.938 9.06757 123.531 8.14865 125.987 8.14865C128.553 8.14865 130.573 8.89189 132.047 10.3784C133.521 11.8378 134.258 13.8649 134.258 16.4595V26.7568C134.258 27.4324 134.558 27.7703 135.158 27.7703V29.5946C135.022 29.6216 134.872 29.6351 134.708 29.6351C134.572 29.6622 134.449 29.6757 134.34 29.6757C133.794 29.6757 133.357 29.5 133.029 29.1486C132.702 28.7703 132.511 28.3243 132.456 27.8108V26.0676C131.474 27.3378 130.218 28.3108 128.689 28.9865C127.161 29.6622 125.51 30 123.735 30ZM124.145 28.3784C125.728 28.3784 127.175 28.0811 128.485 27.4865C129.822 26.8919 130.846 26.1081 131.555 25.1351C131.992 24.5676 132.21 24.027 132.21 23.5135V19.7838C131.228 19.4054 130.204 19.1216 129.14 18.9324C128.075 18.7432 126.97 18.6486 125.823 18.6486C124.759 18.6486 123.79 18.7703 122.916 19.0135C122.043 19.2297 121.292 19.5405 120.665 19.9459C120.037 20.3513 119.545 20.8514 119.191 21.4459C118.863 22.0135 118.699 22.6486 118.699 23.3513C118.699 24.0541 118.836 24.7162 119.109 25.3378C119.382 25.9595 119.764 26.5 120.255 26.9595C120.746 27.3919 121.32 27.7432 121.975 28.0135C122.657 28.2568 123.38 28.3784 124.145 28.3784Z" fill="black"/>
<path d="M149.247 30C147.773 30 146.409 29.7027 145.153 29.1081C143.897 28.4865 142.806 27.6757 141.878 26.6757C140.977 25.6486 140.267 24.4865 139.748 23.1892C139.257 21.8649 139.011 20.5 139.011 19.0946C139.011 17.6351 139.257 16.2432 139.748 14.9189C140.24 13.5946 140.922 12.4324 141.796 11.4324C142.669 10.4324 143.693 9.63513 144.866 9.04054C146.067 8.44594 147.378 8.14865 148.797 8.14865C149.725 8.14865 150.598 8.28378 151.417 8.55405C152.236 8.82432 153 9.18919 153.71 9.64865C154.42 10.0811 155.061 10.5946 155.634 11.1892C156.208 11.7838 156.699 12.4189 157.108 13.0946V0H159.155V26.7568C159.155 27.4324 159.442 27.7703 160.015 27.7703V29.5946C159.851 29.6216 159.715 29.6351 159.606 29.6351C159.497 29.6622 159.387 29.6757 159.278 29.6757C158.732 29.6757 158.268 29.473 157.886 29.0676C157.504 28.6351 157.313 28.1892 157.313 27.7297V25.3784C156.44 26.7838 155.266 27.9054 153.792 28.7432C152.345 29.5811 150.83 30 149.247 30ZM149.616 28.1757C150.353 28.1757 151.144 28.027 151.99 27.7297C152.837 27.4324 153.614 27.027 154.324 26.5135C155.061 25.973 155.689 25.3649 156.208 24.6892C156.726 24.0135 157.026 23.2838 157.108 22.5V15.5676C156.808 14.8108 156.371 14.0946 155.798 13.4189C155.252 12.7162 154.624 12.1216 153.915 11.6351C153.205 11.1216 152.441 10.7162 151.622 10.4189C150.803 10.1216 150.012 9.97297 149.247 9.97297C148.019 9.97297 146.9 10.2432 145.89 10.7838C144.88 11.2973 144.02 11.9865 143.311 12.8514C142.601 13.6892 142.055 14.6622 141.673 15.7703C141.291 16.8513 141.1 17.973 141.1 19.1351C141.1 20.3514 141.318 21.5 141.755 22.5811C142.191 23.6622 142.792 24.6216 143.556 25.4595C144.348 26.2973 145.248 26.9595 146.258 27.4459C147.296 27.9324 148.415 28.1757 149.616 28.1757Z" fill="black"/>
<path d="M174.601 30C173.099 30 171.707 29.7162 170.424 29.1486C169.169 28.5541 168.077 27.7568 167.149 26.7568C166.221 25.7568 165.498 24.5946 164.979 23.2703C164.46 21.9459 164.201 20.5541 164.201 19.0946C164.201 17.6081 164.46 16.2027 164.979 14.8784C165.525 13.5541 166.262 12.3919 167.19 11.3919C168.118 10.3919 169.21 9.60811 170.465 9.04054C171.748 8.44594 173.127 8.14865 174.601 8.14865C176.074 8.14865 177.439 8.44594 178.695 9.04054C179.95 9.60811 181.042 10.3919 181.97 11.3919C182.926 12.3919 183.663 13.5541 184.181 14.8784C184.727 16.2027 185 17.6081 185 19.0946C185 20.5541 184.727 21.9459 184.181 23.2703C183.663 24.5946 182.939 25.7568 182.011 26.7568C181.083 27.7568 179.978 28.5541 178.695 29.1486C177.439 29.7162 176.074 30 174.601 30ZM166.248 19.1757C166.248 20.4189 166.466 21.5946 166.903 22.7027C167.34 23.7838 167.927 24.7297 168.664 25.5405C169.428 26.3513 170.315 27 171.325 27.4865C172.335 27.9459 173.413 28.1757 174.56 28.1757C175.706 28.1757 176.784 27.9459 177.794 27.4865C178.804 27 179.691 26.3378 180.455 25.5C181.22 24.6622 181.82 23.7027 182.257 22.6216C182.694 21.5135 182.912 20.3243 182.912 19.0541C182.912 17.8108 182.694 16.6486 182.257 15.5676C181.82 14.4595 181.22 13.5 180.455 12.6892C179.691 11.8514 178.804 11.1892 177.794 10.7027C176.811 10.2162 175.747 9.97297 174.601 9.97297C173.454 9.97297 172.376 10.2162 171.366 10.7027C170.356 11.1892 169.469 11.8514 168.705 12.6892C167.968 13.527 167.367 14.5135 166.903 15.6486C166.466 16.7568 166.248 17.9324 166.248 19.1757Z" fill="black"/>
</svg>
