<svg width="200" height="32" viewBox="0 0 200 32" fill="none" xmlns="http://www.w3.org/2000/svg">
<path d="M0 0H6.63978V18.7715C6.63978 20.2127 7.21057 20.9333 8.35214 20.9333C8.63171 20.9333 8.93458 20.8853 9.26075 20.7892C9.58691 20.6931 9.88978 20.561 10.1693 20.3929L11.0081 25.437C10.2159 25.8214 9.31899 26.1216 8.3172 26.3378C7.3387 26.554 6.4068 26.662 5.5215 26.662C3.75089 26.662 2.38799 26.1937 1.43279 25.2569C0.477598 24.3201 0 22.963 0 21.1855V0Z" fill="black"/>
<path d="M17.9787 26.662C17.0701 26.662 16.2198 26.5059 15.4277 26.1937C14.6355 25.8814 13.9483 25.4611 13.3658 24.9326C12.8067 24.3802 12.364 23.7316 12.0379 22.987C11.7117 22.2424 11.5486 21.4377 11.5486 20.573C11.5486 19.6122 11.7467 18.7355 12.1427 17.9428C12.5388 17.1502 13.0863 16.4656 13.7852 15.8891C14.4841 15.3127 15.3112 14.8683 16.2664 14.556C17.2449 14.2438 18.3165 14.0876 19.4814 14.0876C20.9725 14.0876 22.2072 14.3278 23.1857 14.8082V14.2318C23.1857 13.343 22.9294 12.6825 22.4169 12.2501C21.9277 11.8178 21.1239 11.6016 20.0056 11.6016C18.9572 11.6016 17.9904 11.7817 17.1051 12.142C16.2198 12.4783 15.2879 12.9827 14.3094 13.6553L12.3873 9.40378C14.8103 7.79445 17.571 6.98978 20.6696 6.98978C23.6051 6.98978 25.8649 7.66234 27.4492 9.00745C29.0334 10.3526 29.8255 12.3702 29.8255 15.0605V18.7355C29.8255 19.384 29.9187 19.8404 30.1051 20.1046C30.2914 20.3448 30.6176 20.4889 31.0836 20.537V26.3017C30.5477 26.4218 30.0352 26.5059 29.5459 26.554C29.08 26.626 28.6606 26.662 28.2879 26.662C27.0997 26.662 26.1911 26.4459 25.5621 26.0135C24.9563 25.5571 24.5603 24.8966 24.3739 24.0319L24.2341 23.3473C23.4187 24.4282 22.4751 25.2569 21.4035 25.8334C20.3318 26.3858 19.1902 26.662 17.9787 26.662ZM19.9707 21.762C20.3667 21.762 20.7744 21.7019 21.1938 21.5818C21.6131 21.4377 21.9859 21.2576 22.3121 21.0414C22.5683 20.8492 22.778 20.6451 22.9411 20.4289C23.1042 20.1887 23.1857 19.9485 23.1857 19.7083V18.3031C22.7897 18.159 22.3587 18.0389 21.8927 17.9428C21.4268 17.8468 21.0074 17.7987 20.6346 17.7987C19.8192 17.7987 19.1436 18.0029 18.6078 18.4112C18.0719 18.8196 17.804 19.336 17.804 19.9605C17.804 20.4889 18.002 20.9213 18.3981 21.2576C18.8174 21.5939 19.3416 21.762 19.9707 21.762Z" fill="black"/>
<path d="M33.3422 0H39.982V18.7715C39.982 20.2127 40.5528 20.9333 41.6944 20.9333C41.9739 20.9333 42.2768 20.8853 42.603 20.7892C42.9291 20.6931 43.232 20.561 43.5116 20.3929L44.3503 25.437C43.5582 25.8214 42.6612 26.1216 41.6594 26.3378C40.6809 26.554 39.749 26.662 38.8637 26.662C37.0931 26.662 35.7302 26.1937 34.775 25.2569C33.8198 24.3201 33.3422 22.963 33.3422 21.1855V0Z" fill="black"/>
<path d="M54.9554 26.662C53.3012 26.662 51.8452 26.3978 50.5871 25.8694C49.3523 25.3169 48.3039 24.5963 47.4419 23.7076C46.6032 22.7948 45.9625 21.75 45.5199 20.573C45.1005 19.372 44.8909 18.123 44.8909 16.8259C44.8909 15.5288 45.1005 14.2918 45.5199 13.1148C45.9625 11.9139 46.6032 10.869 47.4419 9.98025C48.3039 9.0675 49.3523 8.3469 50.5871 7.81847C51.8452 7.26601 53.3012 6.98978 54.9554 6.98978C56.5862 6.98978 58.0306 7.26601 59.2887 7.81847C60.5468 8.3469 61.5951 9.0675 62.4339 9.98025C63.2959 10.869 63.9365 11.9139 64.3559 13.1148C64.7985 14.2918 65.0199 15.5288 65.0199 16.8259C65.0199 18.123 64.7985 19.372 64.3559 20.573C63.9365 21.75 63.2959 22.7948 62.4339 23.7076C61.5951 24.5963 60.5468 25.3169 59.2887 25.8694C58.0306 26.3978 56.5862 26.662 54.9554 26.662ZM51.7054 16.8259C51.7054 18.099 52.0082 19.0958 52.614 19.8164C53.2197 20.537 54.0002 20.8973 54.9554 20.8973C55.9106 20.8973 56.691 20.537 57.2968 19.8164C57.9025 19.0958 58.2054 18.099 58.2054 16.8259C58.2054 15.5529 57.9025 14.556 57.2968 13.8354C56.691 13.1148 55.9106 12.7545 54.9554 12.7545C54.0002 12.7545 53.2197 13.1148 52.614 13.8354C52.0082 14.556 51.7054 15.5529 51.7054 16.8259Z" fill="black"/>
<path d="M80.6881 25.2486C79.5053 25.2486 78.4085 25.0158 77.3978 24.5501C76.387 24.0624 75.5053 23.4083 74.7526 22.5879C74.0214 21.7454 73.4408 20.7809 73.0107 19.6944C72.6021 18.608 72.3978 17.444 72.3978 16.2023C72.3978 14.9829 72.6021 13.841 73.0107 12.7767C73.4408 11.6903 74.0214 10.748 74.7526 9.94977C75.4838 9.1294 76.3548 8.4864 77.3655 8.02079C78.3763 7.55517 79.4623 7.32236 80.6236 7.32236C81.8064 7.32236 82.8924 7.56626 83.8816 8.05404C84.8924 8.51966 85.7634 9.16265 86.4945 9.98302C87.2257 10.7812 87.7956 11.7235 88.2042 12.81C88.6343 13.8742 88.8494 15.005 88.8494 16.2023C88.8494 16.3132 88.8386 16.4573 88.8171 16.6347C88.8171 16.7899 88.8171 16.8897 88.8171 16.934H74.0752C74.1397 17.9318 74.3655 18.863 74.7526 19.7277C75.1397 20.5702 75.6236 21.3019 76.2042 21.9227C76.8064 22.5436 77.4946 23.0314 78.2687 23.3861C79.0429 23.7409 79.8709 23.9182 80.7526 23.9182C81.3333 23.9182 81.9032 23.8406 82.4623 23.6854C83.0429 23.5081 83.5698 23.2752 84.0429 22.987C84.5376 22.6988 84.9677 22.3551 85.3333 21.956C85.7204 21.5347 86.0214 21.0802 86.2365 20.5924L87.6558 20.9915C87.3978 21.6123 87.0322 22.1888 86.5591 22.7209C86.1075 23.2309 85.5698 23.6743 84.9462 24.0513C84.344 24.4282 83.6773 24.7164 82.9462 24.916C82.215 25.1377 81.4623 25.2486 80.6881 25.2486ZM87.2687 15.6037C87.2042 14.5838 86.9784 13.6525 86.5913 12.81C86.2257 11.9674 85.7419 11.2468 85.1397 10.6482C84.5591 10.0274 83.8816 9.55067 83.1075 9.21808C82.3333 8.86333 81.5053 8.68595 80.6236 8.68595C79.7419 8.68595 78.9139 8.86333 78.1397 9.21808C77.3655 9.55067 76.6774 10.0274 76.0752 10.6482C75.4946 11.2468 75.0214 11.9785 74.6558 12.8432C74.3118 13.6858 74.1075 14.6059 74.0429 15.6037H87.2687Z" fill="black"/>
<path d="M117.01 24.916H115.397V15.2711C115.397 13.076 115.064 11.4575 114.397 10.4154C113.752 9.37329 112.752 8.85224 111.397 8.85224C110.688 8.85224 110.021 8.98528 109.397 9.25134C108.774 9.51741 108.204 9.89434 107.688 10.3821C107.193 10.8477 106.752 11.4131 106.365 12.0783C105.999 12.7213 105.709 13.4419 105.494 14.2401V24.916H103.881V15.2711C103.881 13.0539 103.559 11.4353 102.913 10.4154C102.268 9.37329 101.268 8.85224 99.9134 8.85224C99.2252 8.85224 98.5693 8.98528 97.9457 9.25134C97.322 9.49524 96.7521 9.86108 96.236 10.3489C95.7198 10.8145 95.2682 11.3799 94.8811 12.045C94.494 12.688 94.193 13.4086 93.9779 14.2068V24.916H92.365V7.62169H93.8489V11.7457C94.5586 10.3489 95.4725 9.26243 96.5908 8.4864C97.7091 7.71038 98.9456 7.32236 100.3 7.32236C101.72 7.32236 102.86 7.75472 103.72 8.61944C104.602 9.48415 105.128 10.6149 105.3 12.0118C106.935 8.8855 109.128 7.32236 111.881 7.32236C113.731 7.32236 115.042 7.99861 115.817 9.35112C116.612 10.6814 117.01 12.555 117.01 14.9718V24.916Z" fill="black"/>
<path d="M129.949 25.2486C128.508 25.2486 127.229 24.8606 126.11 24.0845C124.992 23.2863 124.089 22.3218 123.401 21.1911V32H121.788V7.62169H123.239V11.0805C123.928 9.97194 124.842 9.07396 125.981 8.38663C127.121 7.67712 128.336 7.32236 129.627 7.32236C130.788 7.32236 131.852 7.57734 132.82 8.0873C133.809 8.59726 134.659 9.27351 135.368 10.1161C136.078 10.9364 136.627 11.8898 137.014 12.9763C137.422 14.0627 137.627 15.1713 137.627 16.3021C137.627 17.4994 137.444 18.6413 137.078 19.7277C136.713 20.8141 136.186 21.7675 135.498 22.5879C134.831 23.4083 134.024 24.0624 133.078 24.5501C132.132 25.0158 131.089 25.2486 129.949 25.2486ZM129.594 23.7519C130.562 23.7519 131.433 23.5413 132.207 23.12C133.003 22.6988 133.68 22.1445 134.239 21.4571C134.799 20.7476 135.229 19.9494 135.53 19.0625C135.831 18.1535 135.981 17.2333 135.981 16.3021C135.981 15.3043 135.809 14.362 135.465 13.4751C135.121 12.5661 134.648 11.7679 134.046 11.0805C133.444 10.3932 132.734 9.84999 131.917 9.45089C131.1 9.02962 130.229 8.81898 129.304 8.81898C128.723 8.81898 128.1 8.95202 127.433 9.21808C126.766 9.46198 126.143 9.80565 125.562 10.2491C124.981 10.6704 124.487 11.1581 124.078 11.7125C123.691 12.2668 123.465 12.8543 123.401 13.4751V19.1623C123.659 19.8053 124.003 20.4039 124.433 20.9583C124.863 21.5126 125.347 22.0003 125.885 22.4216C126.422 22.8429 127.003 23.1755 127.627 23.4194C128.272 23.6411 128.928 23.7519 129.594 23.7519Z" fill="black"/>
<path d="M149.444 9.11831C147.917 9.16265 146.594 9.62827 145.476 10.5152C144.358 11.3799 143.573 12.5772 143.121 14.1071V24.916H141.508V7.62169H143.024V11.8787C143.605 10.6593 144.368 9.67261 145.315 8.91876C146.282 8.14273 147.315 7.69929 148.411 7.58843C148.626 7.58843 148.82 7.58843 148.992 7.58843C149.164 7.56626 149.315 7.55517 149.444 7.55517V9.11831Z" fill="black"/>
<path d="M159.664 25.2486C158.481 25.2486 157.384 25.0158 156.373 24.5501C155.363 24.0624 154.481 23.4083 153.728 22.5879C152.997 21.7454 152.416 20.7809 151.986 19.6944C151.578 18.608 151.373 17.444 151.373 16.2023C151.373 14.9829 151.578 13.841 151.986 12.7767C152.416 11.6903 152.997 10.748 153.728 9.94977C154.459 9.1294 155.33 8.4864 156.341 8.02079C157.352 7.55517 158.438 7.32236 159.599 7.32236C160.782 7.32236 161.868 7.56626 162.857 8.05404C163.868 8.51966 164.739 9.16265 165.47 9.98302C166.201 10.7812 166.771 11.7235 167.18 12.81C167.61 13.8742 167.825 15.005 167.825 16.2023C167.825 16.3132 167.814 16.4573 167.793 16.6347C167.793 16.7899 167.793 16.8897 167.793 16.934H153.051C153.115 17.9318 153.341 18.863 153.728 19.7277C154.115 20.5702 154.599 21.3019 155.18 21.9227C155.782 22.5436 156.47 23.0314 157.244 23.3861C158.018 23.7409 158.846 23.9182 159.728 23.9182C160.309 23.9182 160.879 23.8406 161.438 23.6854C162.018 23.5081 162.545 23.2752 163.018 22.987C163.513 22.6988 163.943 22.3551 164.309 21.956C164.696 21.5347 164.997 21.0802 165.212 20.5924L166.631 20.9915C166.373 21.6123 166.008 22.1888 165.535 22.7209C165.083 23.2309 164.545 23.6743 163.922 24.0513C163.319 24.4282 162.653 24.7164 161.922 24.916C161.19 25.1377 160.438 25.2486 159.664 25.2486ZM166.244 15.6037C166.18 14.5838 165.954 13.6525 165.567 12.81C165.201 11.9674 164.717 11.2468 164.115 10.6482C163.535 10.0274 162.857 9.55067 162.083 9.21808C161.309 8.86333 160.481 8.68595 159.599 8.68595C158.717 8.68595 157.889 8.86333 157.115 9.21808C156.341 9.55067 155.653 10.0274 155.051 10.6482C154.47 11.2468 153.997 11.9785 153.631 12.8432C153.287 13.6858 153.083 14.6059 153.018 15.6037H166.244Z" fill="black"/>
<path d="M176.695 25.2486C175.405 25.2486 174.168 25.0268 172.986 24.5834C171.803 24.14 170.771 23.4748 169.889 22.5879L170.695 21.4571C171.599 22.2997 172.534 22.9205 173.502 23.3196C174.47 23.7187 175.534 23.9182 176.695 23.9182C178.158 23.9182 179.33 23.6078 180.211 22.987C181.115 22.344 181.566 21.4571 181.566 20.3263C181.566 19.7942 181.448 19.3508 181.211 18.996C180.996 18.6191 180.663 18.3087 180.211 18.0648C179.76 17.7987 179.201 17.5659 178.534 17.3664C177.867 17.1668 177.093 16.9562 176.211 16.7345C175.265 16.5127 174.437 16.291 173.728 16.0693C173.039 15.8476 172.47 15.5815 172.018 15.2711C171.566 14.9607 171.222 14.5838 170.986 14.1403C170.771 13.6969 170.663 13.1315 170.663 12.4441C170.663 11.5794 170.824 10.8256 171.147 10.1826C171.47 9.53958 171.91 9.00745 172.47 8.58618C173.05 8.1649 173.706 7.85449 174.437 7.65494C175.19 7.43322 175.986 7.32236 176.824 7.32236C178.136 7.32236 179.297 7.55517 180.308 8.02079C181.319 8.46423 182.104 9.04071 182.663 9.75022L181.76 10.6482C181.201 9.98302 180.47 9.48415 179.566 9.15157C178.685 8.81898 177.738 8.65269 176.728 8.65269C176.104 8.65269 175.513 8.71921 174.953 8.85224C174.416 8.98528 173.943 9.19591 173.534 9.48415C173.125 9.77239 172.803 10.1493 172.566 10.6149C172.33 11.0584 172.211 11.5905 172.211 12.2113C172.211 12.7213 172.287 13.1315 172.437 13.4419C172.609 13.7523 172.867 14.0184 173.211 14.2401C173.577 14.4618 174.039 14.6614 174.599 14.8387C175.158 14.9939 175.824 15.1713 176.599 15.3709C177.652 15.6369 178.588 15.8919 179.405 16.1358C180.222 16.3797 180.9 16.679 181.437 17.0338C181.996 17.3885 182.416 17.8098 182.695 18.2976C182.996 18.7854 183.147 19.4062 183.147 20.1601C183.147 21.7121 182.556 22.9537 181.373 23.885C180.211 24.794 178.652 25.2486 176.695 25.2486Z" fill="black"/>
<path d="M191.032 25.2486C190.258 25.2486 189.527 25.1155 188.839 24.8495C188.172 24.5612 187.581 24.1843 187.065 23.7187C186.57 23.2309 186.183 22.6655 185.903 22.0225C185.624 21.3574 185.484 20.6478 185.484 19.894C185.484 19.1401 185.656 18.4528 186 17.832C186.344 17.2112 186.828 16.679 187.452 16.2356C188.075 15.77 188.806 15.4152 189.645 15.1713C190.505 14.9052 191.452 14.7722 192.484 14.7722C193.387 14.7722 194.301 14.8609 195.226 15.0383C196.151 15.1935 196.978 15.4152 197.71 15.7034V14.0073C197.71 12.3665 197.258 11.0695 196.355 10.1161C195.452 9.14048 194.226 8.65269 192.677 8.65269C191.839 8.65269 190.957 8.83007 190.032 9.18483C189.129 9.53958 188.215 10.0495 187.29 10.7147L186.645 9.58392C188.817 8.07622 190.86 7.32236 192.774 7.32236C194.796 7.32236 196.387 7.9321 197.548 9.15157C198.731 10.3489 199.323 12.0118 199.323 14.1403V22.5879C199.323 23.1422 199.548 23.4194 200 23.4194V24.916C199.892 24.9382 199.785 24.9492 199.677 24.9492C199.591 24.9492 199.505 24.9492 199.419 24.9492C199.032 24.9492 198.677 24.8162 198.355 24.5501C198.032 24.2619 197.871 23.8961 197.871 23.4526V22.0225C197.097 23.0646 196.108 23.8628 194.903 24.4171C193.72 24.9714 192.43 25.2486 191.032 25.2486ZM191.355 23.9182C192.602 23.9182 193.753 23.6854 194.806 23.2198C195.86 22.732 196.645 22.0779 197.161 21.2576C197.527 20.8141 197.71 20.3707 197.71 19.9272V16.8675C196.075 16.2467 194.398 15.9363 192.677 15.9363C191 15.9363 189.645 16.291 188.613 17.0005C187.581 17.71 187.065 18.6413 187.065 19.7942C187.065 20.3707 187.172 20.9139 187.387 21.4239C187.602 21.9338 187.903 22.3773 188.29 22.7542C188.677 23.109 189.129 23.3972 189.645 23.6189C190.183 23.8185 190.753 23.9182 191.355 23.9182Z" fill="black"/>
</svg>
