<svg width="171" height="26" viewBox="0 0 171 26" fill="none" xmlns="http://www.w3.org/2000/svg">
<path d="M0 0H5.75772V19.0784C5.75772 20.4838 6.36948 21.1865 7.59299 21.1865C7.88088 21.1865 8.19275 21.1514 8.52862 21.0811C8.88848 20.9874 9.21235 20.8586 9.50023 20.6946L10.2559 24.9108C9.53622 25.2387 8.70855 25.4964 7.77292 25.6838C6.83729 25.8712 5.96164 25.9649 5.14596 25.9649C3.49062 25.9649 2.21912 25.5432 1.33147 24.7C0.443824 23.8568 0 22.6387 0 21.0459V0Z" fill="black"/>
<path d="M17.4877 26C16.552 26 15.6764 25.8595 14.8607 25.5784C14.069 25.2739 13.3853 24.864 12.8095 24.3486C12.2337 23.8099 11.7779 23.1892 11.4421 22.4865C11.1062 21.7604 10.9383 20.9757 10.9383 20.1324C10.9383 19.2189 11.1302 18.3874 11.514 17.6378C11.9219 16.8883 12.4856 16.2441 13.2054 15.7054C13.9251 15.1667 14.7767 14.745 15.7603 14.4405C16.744 14.136 17.8355 13.9838 19.0351 13.9838C19.8267 13.9838 20.5944 14.0541 21.3381 14.1946C22.0818 14.3117 22.7296 14.4991 23.2814 14.7568V13.9135C23.2814 11.782 22.0219 10.7162 19.5029 10.7162C18.4713 10.7162 17.4877 10.8919 16.552 11.2432C15.6164 11.5712 14.6328 12.0748 13.6012 12.7541L11.9099 9.24054C13.1574 8.44414 14.4529 7.84685 15.7963 7.44865C17.1398 7.05045 18.5672 6.85135 20.0786 6.85135C22.9335 6.85135 25.1406 7.50721 26.7 8.81892C28.2594 10.1306 29.0391 12.0514 29.0391 14.5811V19.3243C29.0391 19.8865 29.1231 20.2847 29.291 20.5189C29.4829 20.7297 29.8068 20.8586 30.2626 20.9054V25.6486C29.7588 25.7658 29.303 25.836 28.8951 25.8595C28.4873 25.9063 28.1155 25.9297 27.7796 25.9297C26.7 25.9297 25.8843 25.7306 25.3326 25.3324C24.7808 24.9108 24.4329 24.3252 24.289 23.5757L24.181 22.7324C23.3413 23.7865 22.3337 24.5946 21.1582 25.1568C20.0067 25.7189 18.7832 26 17.4877 26ZM19.179 21.9595C19.8027 21.9595 20.4025 21.8541 20.9783 21.6432C21.578 21.4324 22.0698 21.1514 22.4537 20.8C23.0055 20.3784 23.2814 19.9333 23.2814 19.4649V17.7081C22.7776 17.5207 22.2258 17.3802 21.626 17.2865C21.0503 17.1694 20.5105 17.1108 20.0067 17.1108C18.9511 17.1108 18.0754 17.345 17.3797 17.8135C16.708 18.282 16.3721 18.891 16.3721 19.6405C16.3721 20.3198 16.636 20.882 17.1638 21.327C17.6916 21.7486 18.3633 21.9595 19.179 21.9595Z" fill="black"/>
<path d="M33.1392 0H38.8969V19.0784C38.8969 20.4838 39.5087 21.1865 40.7322 21.1865C41.0201 21.1865 41.332 21.1514 41.6678 21.0811C42.0277 20.9874 42.3516 20.8586 42.6394 20.6946L43.3951 24.9108C42.6754 25.2387 41.8478 25.4964 40.9121 25.6838C39.9765 25.8712 39.1008 25.9649 38.2852 25.9649C36.6298 25.9649 35.3583 25.5432 34.4707 24.7C33.583 23.8568 33.1392 22.6387 33.1392 21.0459V0Z" fill="black"/>
<path d="M54.2614 26C52.6541 26 51.2146 25.7423 49.9431 25.227C48.6956 24.7117 47.6401 24.0207 46.7764 23.1541C45.9127 22.264 45.253 21.245 44.7972 20.0973C44.3654 18.9261 44.1494 17.7081 44.1494 16.4432C44.1494 15.1784 44.3654 13.9721 44.7972 12.8243C45.253 11.6532 45.9127 10.6342 46.7764 9.76757C47.6401 8.87748 48.6956 8.17477 49.9431 7.65946C51.2146 7.12072 52.6541 6.85135 54.2614 6.85135C55.8688 6.85135 57.2962 7.12072 58.5437 7.65946C59.7912 8.17477 60.8468 8.87748 61.7105 9.76757C62.5741 10.6342 63.2339 11.6532 63.6897 12.8243C64.1455 13.9721 64.3734 15.1784 64.3734 16.4432C64.3734 17.7081 64.1455 18.9261 63.6897 20.0973C63.2579 21.245 62.6101 22.264 61.7465 23.1541C60.8828 24.0207 59.8152 24.7117 58.5437 25.227C57.2962 25.7423 55.8688 26 54.2614 26ZM50.0511 16.4432C50.0511 17.8955 50.4469 19.0667 51.2386 19.9568C52.0303 20.8234 53.0379 21.2568 54.2614 21.2568C54.8612 21.2568 55.413 21.1396 55.9168 20.9054C56.4206 20.6712 56.8524 20.3432 57.2123 19.9216C57.5961 19.5 57.896 18.9964 58.1119 18.4108C58.3278 17.8018 58.4358 17.1459 58.4358 16.4432C58.4358 14.991 58.0399 13.8315 57.2482 12.9649C56.4566 12.0748 55.461 11.6297 54.2614 11.6297C53.6617 11.6297 53.0979 11.7468 52.5701 11.9811C52.0663 12.2153 51.6225 12.5432 51.2386 12.9649C50.8788 13.3865 50.5909 13.9018 50.375 14.5108C50.1591 15.0964 50.0511 15.7405 50.0511 16.4432Z" fill="black"/>
<path d="M81.0618 26C80.1982 26 79.3945 25.8595 78.6508 25.5784C77.9071 25.2739 77.2473 24.8757 76.6715 24.3838C76.1198 23.8685 75.6879 23.2712 75.3761 22.5919C75.0642 21.8892 74.9082 21.1396 74.9082 20.3432C74.9082 19.5468 75.1002 18.8207 75.484 18.1649C75.8679 17.509 76.3957 16.9468 77.0674 16.4784C77.7631 15.9865 78.5908 15.6117 79.5504 15.3541C80.51 15.073 81.5656 14.9324 82.7172 14.9324C83.7248 14.9324 84.7324 15.0261 85.74 15.2135C86.7715 15.3775 87.6952 15.6117 88.5109 15.9162V14.1243C88.5109 12.391 88.0071 11.0207 86.9995 10.0135C85.9919 8.98288 84.6244 8.46757 82.8971 8.46757C81.9854 8.46757 81.0138 8.65495 79.9822 9.02973C78.9746 9.4045 77.943 9.94324 76.8875 10.6459L76.2037 9.45135C78.6028 7.85856 80.8819 7.06216 83.041 7.06216C85.2961 7.06216 87.0714 7.70631 88.3669 8.99459C89.6624 10.2595 90.3101 12.0162 90.3101 14.2649V23.1892C90.3101 23.7748 90.574 24.0676 91.1018 24.0676V25.6486C90.9819 25.6721 90.8499 25.6838 90.706 25.6838C90.586 25.7072 90.4781 25.7189 90.3821 25.7189C89.9023 25.7189 89.5185 25.5667 89.2306 25.2622C88.9427 24.9342 88.7748 24.5477 88.7268 24.1027V22.5919C87.8631 23.6928 86.7595 24.536 85.4161 25.1216C84.0726 25.7072 82.6212 26 81.0618 26ZM81.4217 24.5946C82.8131 24.5946 84.0846 24.3369 85.2362 23.8216C86.4117 23.3063 87.3113 22.627 87.9351 21.7838C88.3189 21.2919 88.5109 20.8234 88.5109 20.3784V17.1459C87.6472 16.818 86.7476 16.5721 85.8119 16.4081C84.8763 16.2441 83.9047 16.1622 82.8971 16.1622C81.9615 16.1622 81.1098 16.2676 80.3421 16.4784C79.5744 16.6658 78.9147 16.9351 78.3629 17.2865C77.8111 17.6378 77.3793 18.0712 77.0674 18.5865C76.7795 19.0784 76.6356 19.6288 76.6356 20.2378C76.6356 20.8468 76.7555 21.4207 76.9954 21.9595C77.2353 22.4982 77.5712 22.9667 78.003 23.3649C78.4348 23.7396 78.9386 24.0441 79.5144 24.2784C80.1142 24.4892 80.7499 24.5946 81.4217 24.5946Z" fill="black"/>
<path d="M95.9279 0H97.7631V22.0297C97.7631 22.709 97.9551 23.2477 98.3389 23.6459C98.7467 24.0441 99.2985 24.2432 99.9942 24.2432C100.258 24.2432 100.57 24.2198 100.93 24.173C101.314 24.1027 101.662 24.009 101.973 23.8919L102.333 25.2973C101.925 25.4613 101.422 25.5901 100.822 25.6838C100.222 25.8009 99.7064 25.8595 99.2745 25.8595C98.2669 25.8595 97.4513 25.5667 96.8275 24.9811C96.2277 24.3721 95.9279 23.564 95.9279 22.5568V0Z" fill="black"/>
<path d="M105.097 25.6486V7.37838H106.896V25.6486H105.097ZM105.097 3.23243V0H106.896V3.23243H105.097Z" fill="black"/>
<path d="M117.153 26C116.289 26 115.486 25.8595 114.742 25.5784C113.998 25.2739 113.338 24.8757 112.763 24.3838C112.211 23.8685 111.779 23.2712 111.467 22.5919C111.155 21.8892 110.999 21.1396 110.999 20.3432C110.999 19.5468 111.191 18.8207 111.575 18.1649C111.959 17.509 112.487 16.9468 113.159 16.4784C113.854 15.9865 114.682 15.6117 115.642 15.3541C116.601 15.073 117.657 14.9324 118.808 14.9324C119.816 14.9324 120.824 15.0261 121.831 15.2135C122.863 15.3775 123.786 15.6117 124.602 15.9162V14.1243C124.602 12.391 124.098 11.0207 123.091 10.0135C122.083 8.98288 120.716 8.46757 118.988 8.46757C118.077 8.46757 117.105 8.65495 116.073 9.02973C115.066 9.4045 114.034 9.94324 112.979 10.6459L112.295 9.45135C114.694 7.85856 116.973 7.06216 119.132 7.06216C121.387 7.06216 123.163 7.70631 124.458 8.99459C125.754 10.2595 126.401 12.0162 126.401 14.2649V23.1892C126.401 23.7748 126.665 24.0676 127.193 24.0676V25.6486C127.073 25.6721 126.941 25.6838 126.797 25.6838C126.677 25.7072 126.569 25.7189 126.473 25.7189C125.993 25.7189 125.61 25.5667 125.322 25.2622C125.034 24.9342 124.866 24.5477 124.818 24.1027V22.5919C123.954 23.6928 122.851 24.536 121.507 25.1216C120.164 25.7072 118.712 26 117.153 26ZM117.513 24.5946C118.904 24.5946 120.176 24.3369 121.327 23.8216C122.503 23.3063 123.402 22.627 124.026 21.7838C124.41 21.2919 124.602 20.8234 124.602 20.3784V17.1459C123.738 16.818 122.839 16.5721 121.903 16.4081C120.967 16.2441 119.996 16.1622 118.988 16.1622C118.053 16.1622 117.201 16.2676 116.433 16.4784C115.666 16.6658 115.006 16.9351 114.454 17.2865C113.902 17.6378 113.47 18.0712 113.159 18.5865C112.871 19.0784 112.727 19.6288 112.727 20.2378C112.727 20.8468 112.847 21.4207 113.087 21.9595C113.326 22.4982 113.662 22.9667 114.094 23.3649C114.526 23.7396 115.03 24.0441 115.606 24.2784C116.205 24.4892 116.841 24.5946 117.513 24.5946Z" fill="black"/>
<path d="M139.576 26C138.281 26 137.081 25.7423 135.977 25.227C134.874 24.6883 133.914 23.9856 133.099 23.1189C132.307 22.2288 131.683 21.2216 131.227 20.0973C130.796 18.9495 130.58 17.7667 130.58 16.5486C130.58 15.2838 130.796 14.0775 131.227 12.9297C131.659 11.782 132.259 10.7748 133.027 9.90811C133.794 9.04144 134.694 8.35045 135.726 7.83513C136.781 7.31982 137.933 7.06216 139.18 7.06216C139.996 7.06216 140.764 7.17928 141.483 7.41351C142.203 7.64775 142.875 7.96396 143.498 8.36216C144.122 8.73694 144.686 9.18198 145.19 9.6973C145.694 10.2126 146.125 10.7631 146.485 11.3486V0H148.285V23.1892C148.285 23.7748 148.536 24.0676 149.04 24.0676V25.6486C148.896 25.6721 148.776 25.6838 148.68 25.6838C148.584 25.7072 148.488 25.7189 148.393 25.7189C147.913 25.7189 147.505 25.5432 147.169 25.1919C146.833 24.8171 146.665 24.4306 146.665 24.0324V21.9946C145.898 23.2126 144.866 24.1847 143.57 24.9108C142.299 25.6369 140.967 26 139.576 26ZM139.9 24.4189C140.548 24.4189 141.243 24.2901 141.987 24.0324C142.731 23.7748 143.414 23.4234 144.038 22.9784C144.686 22.5099 145.238 21.9829 145.694 21.3973C146.149 20.8117 146.413 20.1793 146.485 19.5V13.4919C146.221 12.836 145.838 12.2153 145.334 11.6297C144.854 11.0207 144.302 10.5054 143.678 10.0838C143.055 9.63874 142.383 9.28739 141.663 9.02973C140.943 8.77207 140.248 8.64324 139.576 8.64324C138.496 8.64324 137.513 8.87748 136.625 9.34595C135.738 9.79099 134.982 10.3883 134.358 11.1378C133.734 11.864 133.255 12.7072 132.919 13.6676C132.583 14.6045 132.415 15.5766 132.415 16.5838C132.415 17.6378 132.607 18.6333 132.991 19.5703C133.374 20.5072 133.902 21.3387 134.574 22.0649C135.27 22.791 136.061 23.3649 136.949 23.7865C137.861 24.2081 138.844 24.4189 139.9 24.4189Z" fill="black"/>
<path d="M161.86 26C160.54 26 159.317 25.7541 158.189 25.2622C157.086 24.7468 156.126 24.0559 155.31 23.1892C154.495 22.3225 153.859 21.3153 153.403 20.1676C152.947 19.0198 152.719 17.8135 152.719 16.5486C152.719 15.2604 152.947 14.0423 153.403 12.8946C153.883 11.7468 154.531 10.7396 155.346 9.87297C156.162 9.00631 157.122 8.32703 158.225 7.83513C159.353 7.31982 160.564 7.06216 161.86 7.06216C163.155 7.06216 164.355 7.31982 165.458 7.83513C166.562 8.32703 167.521 9.00631 168.337 9.87297C169.177 10.7396 169.824 11.7468 170.28 12.8946C170.76 14.0423 171 15.2604 171 16.5486C171 17.8135 170.76 19.0198 170.28 20.1676C169.824 21.3153 169.189 22.3225 168.373 23.1892C167.557 24.0559 166.586 24.7468 165.458 25.2622C164.355 25.7541 163.155 26 161.86 26ZM154.519 16.6189C154.519 17.6964 154.71 18.7153 155.094 19.6757C155.478 20.6126 155.994 21.4324 156.642 22.1351C157.313 22.8378 158.093 23.4 158.981 23.8216C159.868 24.2198 160.816 24.4189 161.824 24.4189C162.831 24.4189 163.779 24.2198 164.667 23.8216C165.554 23.4 166.334 22.8261 167.006 22.1C167.677 21.3739 168.205 20.5423 168.589 19.6054C168.973 18.645 169.165 17.6144 169.165 16.5135C169.165 15.436 168.973 14.4288 168.589 13.4919C168.205 12.5315 167.677 11.7 167.006 10.9973C166.334 10.2712 165.554 9.6973 164.667 9.27567C163.803 8.85405 162.867 8.64324 161.86 8.64324C160.852 8.64324 159.904 8.85405 159.017 9.27567C158.129 9.6973 157.349 10.2712 156.678 10.9973C156.03 11.7234 155.502 12.5784 155.094 13.5622C154.71 14.5225 154.519 15.5414 154.519 16.6189Z" fill="black"/>
</svg>
